<svg xmlns="http://www.w3.org/2000/svg" viewBox="230 500 830 225"><path fill="#d40000" d="m653.8 521.5-7.7 13.5h9.2l9.2-.1 3.5-4.3c1.9-2.4 7-8.4 11.3-13.5l7.8-9.1h-12.8l-12.8.1zm-10.7 24.1c-7.1 1.9-14.6 6.1-17.8 9.9-1.5 1.6-3.8 5.5-5.2 8.5l-2.6 5.5-.3 44.4c-.3 48.1-.2 49.4 5.4 58.2 3.8 6.1 13 12.7 16 11.5.8-.3 1.3-.2.9.3-.9 1.6 13.5 3.4 22 2.8 14.7-1 24.9-6.8 30.3-17.1l2.7-5.1v-97l-2.9-5.3c-3.5-6.2-7.7-10.2-14.4-13.6-9.2-4.6-23.4-5.9-34.1-3m20.3 22.8c6.5 2.7 6.6 3.8 6.6 47.5 0 41.3-.1 42.6-4.8 45.7-2.5 1.6-12.9 3.6-13.4 2.5-.2-.3-1.6-1.3-3.3-2.1-1.6-.9-3.5-2.7-4.2-4-1.7-3.3-1.9-82.1-.2-85.1 2.8-5.2 12.2-7.5 19.3-4.5m-129.1-21.7-17.3.3v139h24.8l.5-5.8c.3-3.1.6-14.3.6-24.7 0-10.5 0-20.3.1-21.8 0-2.8.1-2.8 5.3-2.5l5.2.3 2.7 7.5c1.4 4.1 5.8 16 9.6 26.5l7 19 13.1.3c8.5.2 13.1-.1 13.1-.8 0-.5-.5-1-1.1-1-.5 0-.8-.4-.5-.9.4-.5-3.9-12.8-9.4-27.3-5.5-14.6-10-26.9-9.9-27.4 0-.5 2.1-2.3 4.6-3.9 6-4 10.9-11.1 12.3-18.1.7-3.3 1-11.6.8-20.3-.3-14.2-.4-14.9-3.6-21.3-1.9-3.9-4.6-7.7-6.7-9.3-4.5-3.4-12.3-6.8-14-6.1-.8.3-1.5.1-1.7-.4-.4-1.2-15.2-1.7-35.5-1.3m31.9 24.3c4.2 3.2 5 6.8 4.6 19.4-.3 11.5-.3 11.6-3.6 14.8-3.2 3.2-3.4 3.3-13.6 3.6l-10.5.4-.3-10.1c-.2-5.6-.2-14.6 0-20.1l.3-10h10.3c8.8 0 10.7.3 12.8 2M342 548.4c-11.1 3.1-20 10.9-24.1 21.2-2.4 5.9-2.4 6-2.7 51.9-.3 48.9 0 54.1 4.3 62.5 3.1 6 6.7 9.3 14 12.7 5.3 2.4 7.2 2.7 16 2.7 17.8 0 30.3-5.9 37.3-17.4 5.7-9.6 5.7-9.4 5.7-61.5v-48l-2.6-5.5c-1.4-3.1-4.1-7.2-5.8-9.3-3.6-4.1-13.3-9.2-15.6-8.3-.9.3-1.4.2-1.1-.3 1.4-2.3-17.8-2.8-25.4-.7m18.5 24c6.5 2.8 6.5 2.7 6.5 50.3 0 32-.3 43.4-1.3 45.2-1.9 3.7-6 6.3-11.1 6.8-5.5.7-9.9-1-12.3-4.6-1.7-2.4-1.8-5.9-1.8-46.1 0-41.2.1-43.7 1.9-46.5 3.9-6 11-8 18.1-5.1m74-24.4-18 .5v143l6.5-.2c3.6-.2 9.3-.5 12.8-.9l6.2-.6V634h10.5l8.4 23.8c4.6 13 9.1 24.3 9.9 24.9 1 .9 1.2 1.3.4 1.3-1 0-1 .5-.2 2 1 1.9 1.9 2 13.8 1.8 12.1-.3 12.7-.4 12.4-2.3-.2-1.1-4.8-13.9-10.3-28.5-5.4-14.6-9.9-27-9.9-27.5.1-.6 2.1-2.3 4.5-3.8 5.3-3.4 9.7-9.4 12-16.4 1.4-4.2 1.6-8.2 1.3-21.5-.3-14.4-.6-16.9-2.6-21.3-2.8-6-8.2-11.9-13.6-14.7-4.4-2.3-17.2-4.8-22.6-4.6-1.9.1-11.6.5-21.5.8m27.8 21.8c-.8.5-.2 1.2 1.9 2.1 4.8 2.2 6 6.4 5.6 20.2-.3 11.5-.4 11.9-3.2 14.8-3.1 3.3-4.6 3.7-16.9 4.6l-7.7.7.2-20.9.3-20.8 9.5-.6c5.2-.3 10-.6 10.5-.7.6-.1.5.2-.2.6M719 615.9v68.9l10.3.7c5.6.4 11.2.5 12.5.4l2.4-.4.1-27.5.2-27.5 16.8-.2c9.3-.1 17.1-.4 17.4-.6.2-.3.1-5.5-.3-11.6l-.7-11.1-16.6-.2-16.6-.3v-36l21.8.3 21.8.3-.3-11.8-.3-11.8-34.2-.3-34.3-.2zm85.9-67.7c-.9 4.4-1.9 54.3-1.2 69.3.1 2.2.1 19.1 0 37.5l-.1 33.5 7.5.7c4.1.3 15.7 1.1 25.9 1.7 10.2.7 21.8 1.4 25.8 1.8l7.2.6v-24.1l-6.2-.6c-8.7-.9-29.8-2.6-32.5-2.6H829V548.2l-12-.1c-6.6-.1-12-.1-12.1.1m82.7 27.9c-.4 15.1-.6 47.9-.4 72.9l.3 45.4 4 .7c2.2.3 7.7.9 12.3 1.3l8.2.6v-72.9c0-55.7-.3-73.2-1.2-73.7-.7-.4-6-1-11.9-1.2l-10.7-.4zM275.5 551c-12.1.4-26.6.8-32.2.9l-10.3.1v157l2.3-.1c1.2 0 6.7-.6 12.2-1.2l10-1.2.5-33 .5-33 10-.7c5.5-.4 13.3-1 17.3-1.4l7.2-.6v-24l-17.5.7-17.5.8v-38l6.1-.7c3.4-.3 11.2-.6 17.4-.6s13.3-.3 15.9-.6l4.7-.7-.3-12.1c-.3-11.3-.4-12.1-2.3-12.2-1.1 0-11.9.2-24 .6m656 0c-.3.6 1.2 5.6 3.4 11.3 8.3 21.5 23.1 61.6 23.1 62.9 0 .7-6.5 17.5-14.5 37.3l-14.4 36 3.2.7c1.8.4 7.5.8 12.6 1l9.5.3 8-21.2c4.5-11.7 8.4-21.3 8.7-21.3s4.3 10.8 9 23.9c4.6 13.1 8.7 23.7 9.2 23.4.4-.2.7.1.7.6 0 .6 1.5 1.1 3.3 1.1 1.7 0 7.3.7 12.2 1.4 5 .8 9.2 1.2 9.4 1 .5-.4-4.7-14.7-19-52L984 626.3l3.4-8.9c1.8-4.9 8.4-21.4 14.5-36.8 6.2-15.3 11.1-28 10.9-28.1s-5.6-.5-12.1-.8l-11.8-.6-2.6 5.7c-1.4 3.1-4.7 11.3-7.4 18.2-2.8 6.9-5.5 13.6-6 15-1 2.2-1.9.3-8.9-18.5l-7.7-21-12.1-.3c-7.6-.2-12.3.1-12.7.8"/><path fill="red" d="M804.2 552.5c0 1.6.2 2.2.5 1.2.2-.9.2-2.3 0-3-.3-.6-.5.1-.5 1.8"/></svg>